<?xml version="1.0" standalone="no"?>
<!DOCTYPE svg PUBLIC "-//W3C//DTD SVG 20010904//EN"
 "http://www.w3.org/TR/2001/REC-SVG-20010904/DTD/svg10.dtd">
<svg version="1.0" xmlns="http://www.w3.org/2000/svg"
 width="919.000000pt" height="679.000000pt" viewBox="0 0 919.000000 679.000000"
 preserveAspectRatio="xMidYMid meet">

<g transform="translate(0.000000,679.000000) scale(0.100000,-0.100000)"
fill="#000000" stroke="none">
<path d="M0 3395 l0 -3395 4595 0 4595 0 0 3395 0 3395 -4595 0 -4595 0 0
-3395z m2227 496 c61 -27 116 -84 147 -150 20 -44 21 -62 24 -428 l3 -383 -55
0 -55 0 -3 373 c-3 329 -5 376 -20 403 -21 39 -71 82 -106 92 -15 4 -121 7
-237 7 -201 0 -212 -1 -250 -23 -22 -13 -52 -39 -65 -59 l-25 -37 -3 -378 -3
-378 -55 0 -55 0 3 388 c3 383 3 387 26 432 44 84 111 138 199 160 21 5 137 8
258 7 207 -2 223 -4 272 -26z m1001 17 c82 -20 155 -77 196 -153 20 -39 21
-53 24 -432 l3 -393 -56 0 -55 0 0 368 c0 366 0 369 -23 413 -16 30 -38 52
-68 69 -43 24 -49 24 -259 24 -243 -1 -268 -6 -316 -70 l-29 -37 -3 -384 -3
-383 -60 0 -61 0 4 383 3 382 27 56 c41 83 108 138 195 158 58 14 426 13 481
-1z m1280 -45 c2 -29 -1 -53 -5 -53 -731 -4 -726 -4 -759 -27 -43 -31 -57 -71
-52 -143 4 -52 9 -66 36 -93 l32 -32 293 -5 c333 -6 343 -8 404 -93 42 -58 57
-130 50 -234 -7 -92 -27 -140 -79 -190 -63 -61 -82 -63 -484 -63 l-364 0 0 55
0 54 368 3 c349 3 368 4 394 23 39 29 51 61 53 145 3 96 -8 133 -48 162 -31
22 -39 23 -322 28 l-290 5 -41 27 c-86 56 -114 112 -114 233 0 125 61 212 168
241 35 9 142 12 402 11 l355 -2 3 -52z m1052 -103 c0 -178 -11 -219 -72 -279
l-30 -29 40 -54 c22 -29 45 -71 51 -93 6 -22 11 -115 11 -207 l0 -168 -55 0
-55 0 0 162 c0 189 -12 229 -83 276 l-40 27 -291 0 -291 0 3 -220 c1 -121 -1
-226 -6 -233 -6 -9 -26 -12 -58 -10 l-49 3 0 375 c0 282 3 384 13 412 19 53
66 114 112 144 73 49 109 53 468 53 l332 1 0 -160z m892 127 c66 -32 131 -106
150 -171 9 -30 13 -144 13 -411 l0 -370 -55 0 -55 0 -5 381 -5 381 -28 36
c-51 67 -65 71 -312 71 -215 0 -221 0 -265 -24 -32 -18 -52 -38 -67 -70 -23
-43 -23 -50 -23 -412 l0 -368 -55 0 -56 0 3 393 c3 381 4 393 25 433 41 77
120 137 203 155 19 4 134 7 255 6 219 -2 220 -2 277 -30z m1046 4 c69 -31 137
-106 157 -174 12 -41 15 -120 15 -419 l0 -368 -55 0 -55 0 0 364 c0 386 -2
403 -50 453 -50 54 -69 58 -295 58 -115 0 -222 -3 -237 -7 -35 -10 -85 -53
-106 -92 -15 -27 -17 -74 -20 -403 l-3 -373 -55 0 -55 0 3 383 c3 364 4 384
24 428 41 88 110 146 201 169 21 5 137 8 258 7 208 -2 223 -4 273 -26z"/>
<path d="M4910 3803 c-55 -8 -70 -14 -100 -39 -44 -37 -58 -70 -63 -148 -8
-117 -38 -106 295 -106 321 0 334 2 379 63 20 27 24 47 27 126 4 72 1 95 -9
102 -13 8 -478 10 -529 2z"/>
</g>
</svg>
