<!DOCTYPE svg PUBLIC "-//W3C//DTD SVG 1.1//EN" "http://www.w3.org/Graphics/SVG/1.1/DTD/svg11.dtd">

<!-- Uploaded to: SVG Repo, www.svgrepo.com, Transformed by: SVG Repo Mixer Tools -->
<svg width="256px" height="256px" viewBox="-51.2 -51.2 614.40 614.40" version="1.1" xml:space="preserve" xmlns="http://www.w3.org/2000/svg" xmlns:xlink="http://www.w3.org/1999/xlink" fill="#000000">

<g id="SVGRepo_bgCarrier" stroke-width="0">

<path transform="translate(-51.2, -51.2), scale(38.4)" fill="#1dc071" d="M9.166.33a2.25 2.25 0 00-2.332 0l-5.25 3.182A2.25 2.25 0 00.5 5.436v5.128a2.25 2.25 0 001.084 1.924l5.25 3.182a2.25 2.25 0 002.332 0l5.25-3.182a2.25 2.25 0 001.084-1.924V5.436a2.25 2.25 0 00-1.084-1.924L9.166.33z" strokewidth="0"/>

</g>

<g id="SVGRepo_tracerCarrier" stroke-linecap="round" stroke-linejoin="round"/>

<g id="SVGRepo_iconCarrier"> <style type="text/css"> .st0{fill:#000000;} .st1{fill:none;stroke:#000000;stroke-width:32;stroke-linecap:round;stroke-linejoin:round;stroke-miterlimit:10;} </style> <g id="Layer_1"/> <g id="Layer_2"> <g> <path class="st0" d="M263.24,43.5c-117.36,0-212.5,95.14-212.5,212.5s95.14,212.5,212.5,212.5s212.5-95.14,212.5-212.5 S380.6,43.5,263.24,43.5z M367.83,298.36c17.18,17.18,17.18,45.04,0,62.23v0c-17.18,17.18-45.04,17.18-62.23,0l-42.36-42.36 l-42.36,42.36c-17.18,17.18-45.04,17.18-62.23,0v0c-17.18-17.18-17.18-45.04,0-62.23L201.01,256l-42.36-42.36 c-17.18-17.18-17.18-45.04,0-62.23v0c17.18-17.18,45.04-17.18,62.23,0l42.36,42.36l42.36-42.36c17.18-17.18,45.04-17.18,62.23,0v0 c17.18,17.18,17.18,45.04,0,62.23L325.46,256L367.83,298.36z"/> </g> </g> </g>

</svg>